# xmcd
#
# Track frame offsets: 
#        150
#        16415
#        32690
#        33760
#
# Disc length: 456 seconds
#
# Revision: 0
# Processed by: cddbd v1.5.2PL0 Copyright (c) Steve Scherf et al.
# Submitted via: ExactAudioCopy v1.3
#
DISCID=2201c604
DTITLE=Jermaine Dupri feat Keith Sweat and R.O.C. - Going Home With Me (
DTITLE=CDS)
DYEAR=1998
DGENRE=R&B
TTITLE0=Going Home With Me (Clean Version)
TTITLE1=Going Home With Me (Instrumental)
TTITLE2=Going Home With Me (Callout Hook #1)
TTITLE3=Going Home With Me (Callout Hook #2)
EXTD=
EXTT0=
EXTT1=
EXTT2=
EXTT3=
PLAYORDER=
